<svg width="24" height="6" viewBox="0 0 24 6" fill="none" xmlns="http://www.w3.org/2000/svg">
<path d="M3.3475 0C1.76043 0 0.461914 1.32 0.461914 2.93333C0.461914 4.54667 1.76043 5.86667 3.3475 5.86667C4.93458 5.86667 6.23309 4.54667 6.23309 2.93333C6.23309 1.32 4.93458 0 3.3475 0ZM20.661 0C19.074 0 17.7755 1.32 17.7755 2.93333C17.7755 4.54667 19.074 5.86667 20.661 5.86667C22.2481 5.86667 23.5466 4.54667 23.5466 2.93333C23.5466 1.32 22.2481 0 20.661 0ZM12.0043 0C10.4172 0 9.11868 1.32 9.11868 2.93333C9.11868 4.54667 10.4172 5.86667 12.0043 5.86667C13.5913 5.86667 14.8899 4.54667 14.8899 2.93333C14.8899 1.32 13.5913 0 12.0043 0Z" fill="#BFBFBF"/>
</svg>
