<svg width="34" height="19" viewBox="0 0 34 19" fill="currentColor" xmlns="http://www.w3.org/2000/svg">
<path d="M17 10.6875C19.3092 10.6875 21.3492 11.305 23.0067 12.1125C24.5367 12.8725 25.5 14.5825 25.5 16.435V19H8.5V16.4508C8.5 14.5825 9.46333 12.8725 10.9933 12.1283C12.6508 11.305 14.6908 10.6875 17 10.6875ZM5.66667 11.0833C7.225 11.0833 8.5 9.65833 8.5 7.91667C8.5 6.175 7.225 4.75 5.66667 4.75C4.10833 4.75 2.83333 6.175 2.83333 7.91667C2.83333 9.65833 4.10833 11.0833 5.66667 11.0833ZM7.2675 12.825C6.74333 12.73 6.21917 12.6667 5.66667 12.6667C4.26417 12.6667 2.9325 12.9992 1.72833 13.585C0.68 14.0917 0 15.2317 0 16.5142V19H6.375V16.4508C6.375 15.1367 6.70083 13.9017 7.2675 12.825ZM28.3333 11.0833C29.8917 11.0833 31.1667 9.65833 31.1667 7.91667C31.1667 6.175 29.8917 4.75 28.3333 4.75C26.775 4.75 25.5 6.175 25.5 7.91667C25.5 9.65833 26.775 11.0833 28.3333 11.0833ZM34 16.5142C34 15.2317 33.32 14.0917 32.2717 13.585C31.0675 12.9992 29.7358 12.6667 28.3333 12.6667C27.7808 12.6667 27.2567 12.73 26.7325 12.825C27.2992 13.9017 27.625 15.1367 27.625 16.4508V19H34V16.5142ZM17 0C19.3517 0 21.25 2.12167 21.25 4.75C21.25 7.37833 19.3517 9.5 17 9.5C14.6483 9.5 12.75 7.37833 12.75 4.75C12.75 2.12167 14.6483 0 17 0Z" fill="currentColor"/>
</svg>
