<svg width="16" height="28" viewBox="0 0 16 28" fill="none" xmlns="http://www.w3.org/2000/svg">
<path d="M8.44833 12.1792C4.94875 11.2696 3.82333 10.3292 3.82333 8.86458C3.82333 7.18417 5.38042 6.0125 7.98583 6.0125C10.73 6.0125 11.7475 7.32292 11.84 9.25H15.2471C15.1392 6.59833 13.5204 4.1625 10.2983 3.37625V0H5.67333V3.33C2.6825 3.9775 0.2775 5.92 0.2775 8.89542C0.2775 12.4567 3.22208 14.2296 7.52333 15.2625C11.3775 16.1875 12.1483 17.5442 12.1483 18.9779C12.1483 20.0417 11.3929 21.7375 7.98583 21.7375C4.81 21.7375 3.56125 20.3192 3.39167 18.5H0C0.185 21.8762 2.71333 23.7725 5.67333 24.4046V27.75H10.2983V24.4354C13.3046 23.865 15.6942 22.1229 15.6942 18.9625C15.6942 14.5842 11.9479 13.0887 8.44833 12.1792Z" fill="#BFBFBF"/>
</svg>
