<svg width="563" height="149" viewBox="0 0 563 149" fill="none" xmlns="http://www.w3.org/2000/svg">
<path d="M65.952 34.032C68.208 34.032 69.912 34.536 71.064 35.544C72.232 36.552 72.816 37.96 72.816 39.768C72.816 41.608 72.232 43.032 71.064 44.04C69.912 45.048 68.208 45.552 65.952 45.552H60.696V53.328H58.944V34.032H65.952ZM65.832 43.992C67.592 43.992 68.904 43.648 69.768 42.96C70.648 42.256 71.088 41.192 71.088 39.768C71.088 38.36 70.648 37.312 69.768 36.624C68.904 35.936 67.592 35.592 65.832 35.592H60.696V43.992H65.832Z" fill="black"/>
<path d="M77.4069 53.328H75.6549V34.032H77.4069V53.328Z" fill="black"/>
<path d="M86.6554 39.096C87.7274 39.096 88.6714 39.312 89.4874 39.744C90.3034 40.16 90.9354 40.776 91.3834 41.592C91.8474 42.392 92.0794 43.344 92.0794 44.448V53.328H90.5194L90.3994 51.408C89.9994 52.112 89.4234 52.664 88.6714 53.064C87.9354 53.48 87.0794 53.688 86.1034 53.688H85.1674C84.2874 53.688 83.4954 53.504 82.7914 53.136C82.1034 52.768 81.5594 52.256 81.1594 51.6C80.7754 50.944 80.5834 50.208 80.5834 49.392C80.5834 48.112 81.0554 47.088 81.9994 46.32C82.9594 45.552 84.2874 45.168 85.9834 45.168H90.3514V44.568C90.3514 43.368 90.0234 42.424 89.3674 41.736C88.7114 41.048 87.7674 40.704 86.5354 40.704C85.6554 40.704 84.8874 40.896 84.2314 41.28C83.5914 41.664 83.0874 42.2 82.7194 42.888L81.1594 42.168C81.6394 41.24 82.3674 40.496 83.3434 39.936C84.3194 39.376 85.4234 39.096 86.6554 39.096ZM86.3434 52.08C87.3514 52.08 88.2394 51.792 89.0074 51.216C89.7914 50.656 90.2394 49.912 90.3514 48.984V46.728H86.1034C84.8234 46.728 83.8714 46.968 83.2474 47.448C82.6234 47.928 82.3114 48.576 82.3114 49.392C82.3114 50.224 82.5914 50.88 83.1514 51.36C83.7274 51.84 84.4954 52.08 85.4554 52.08H86.3434Z" fill="black"/>
<path d="M101.984 39.096C103.616 39.096 104.896 39.624 105.824 40.68C106.768 41.72 107.24 43.104 107.24 44.832V53.328H105.512V44.928C105.512 43.6 105.184 42.568 104.528 41.832C103.888 41.08 102.92 40.704 101.624 40.704C100.808 40.704 100.072 40.888 99.4163 41.256C98.7763 41.624 98.2723 42.136 97.9043 42.792C97.5363 43.432 97.3522 44.168 97.3522 45V53.328H95.6003V39.456H97.1842L97.3282 41.664C97.7762 40.864 98.4002 40.24 99.2002 39.792C100.016 39.328 100.944 39.096 101.984 39.096Z" fill="black"/>
<path d="M125.044 39.096C125.972 39.096 126.788 39.336 127.492 39.816C128.212 40.296 128.764 40.968 129.148 41.832C129.548 42.696 129.748 43.696 129.748 44.832V53.328H128.02V44.88C128.02 43.568 127.724 42.544 127.132 41.808C126.54 41.056 125.716 40.68 124.66 40.68C123.62 40.68 122.764 41.08 122.092 41.88C121.436 42.68 121.108 43.72 121.108 45V53.328H119.404V44.88C119.404 43.568 119.108 42.544 118.516 41.808C117.94 41.056 117.116 40.68 116.044 40.68C114.988 40.68 114.14 41.08 113.5 41.88C112.86 42.664 112.54 43.704 112.54 45V53.328H110.788V39.456H112.372L112.492 41.496C112.908 40.744 113.452 40.16 114.124 39.744C114.796 39.312 115.572 39.096 116.452 39.096C117.428 39.096 118.276 39.36 118.996 39.888C119.716 40.4 120.26 41.12 120.628 42.048C121.028 41.152 121.612 40.44 122.38 39.912C123.164 39.368 124.052 39.096 125.044 39.096Z" fill="black"/>
<path d="M134.583 36.504C134.231 36.504 133.927 36.384 133.671 36.144C133.431 35.904 133.311 35.608 133.311 35.256C133.311 34.904 133.431 34.608 133.671 34.368C133.927 34.128 134.231 34.008 134.583 34.008C134.935 34.008 135.231 34.136 135.471 34.392C135.711 34.632 135.831 34.92 135.831 35.256C135.831 35.608 135.711 35.904 135.471 36.144C135.231 36.384 134.935 36.504 134.583 36.504ZM135.447 53.328H133.719V39.456H135.447V53.328Z" fill="black"/>
<path d="M146.094 39.096C147.726 39.096 149.006 39.624 149.934 40.68C150.878 41.72 151.35 43.104 151.35 44.832V53.328H149.622V44.928C149.622 43.6 149.294 42.568 148.638 41.832C147.998 41.08 147.03 40.704 145.734 40.704C144.918 40.704 144.182 40.888 143.526 41.256C142.886 41.624 142.382 42.136 142.014 42.792C141.646 43.432 141.462 44.168 141.462 45V53.328H139.71V39.456H141.294L141.438 41.664C141.886 40.864 142.51 40.24 143.31 39.792C144.126 39.328 145.054 39.096 146.094 39.096Z" fill="black"/>
<path d="M165.073 39.456H166.657V51.456C166.657 52.784 166.393 53.92 165.865 54.864C165.337 55.824 164.609 56.544 163.681 57.024C162.753 57.52 161.705 57.768 160.537 57.768C159.209 57.768 158.033 57.544 157.009 57.096C155.985 56.648 155.233 55.976 154.753 55.08L156.433 54.336C156.753 54.96 157.281 55.432 158.017 55.752C158.753 56.088 159.593 56.256 160.537 56.256C161.929 56.256 163.009 55.816 163.777 54.936C164.545 54.072 164.929 52.872 164.929 51.336V50.208C164.401 50.976 163.713 51.56 162.865 51.96C162.017 52.376 161.089 52.584 160.081 52.584C159.089 52.584 158.145 52.336 157.249 51.84C156.369 51.36 155.657 50.672 155.113 49.776C154.569 48.864 154.297 47.808 154.297 46.608V45.072C154.297 43.888 154.569 42.84 155.113 41.928C155.657 41.016 156.369 40.32 157.249 39.84C158.145 39.344 159.089 39.096 160.081 39.096C161.105 39.096 162.041 39.312 162.889 39.744C163.737 40.16 164.425 40.76 164.953 41.544L165.073 39.456ZM160.513 51.024C161.345 51.024 162.097 50.84 162.769 50.472C163.441 50.104 163.969 49.584 164.353 48.912C164.737 48.24 164.929 47.448 164.929 46.536V45.12C164.929 44.224 164.729 43.44 164.329 42.768C163.945 42.08 163.417 41.56 162.745 41.208C162.073 40.84 161.329 40.656 160.513 40.656C159.681 40.656 158.921 40.84 158.233 41.208C157.561 41.56 157.025 42.072 156.625 42.744C156.241 43.416 156.049 44.208 156.049 45.12V46.536C156.049 47.448 156.241 48.24 156.625 48.912C157.025 49.584 157.561 50.104 158.233 50.472C158.921 50.84 159.681 51.024 160.513 51.024Z" fill="black"/>
<path d="M176.148 53.688C175.028 53.688 173.988 53.44 173.028 52.944C172.068 52.464 171.3 51.752 170.724 50.808C170.148 49.848 169.86 48.712 169.86 47.4V45.36C169.86 44.048 170.148 42.92 170.724 41.976C171.3 41.032 172.068 40.32 173.028 39.84C173.988 39.344 175.028 39.096 176.148 39.096C177.284 39.096 178.332 39.344 179.292 39.84C180.252 40.32 181.02 41.032 181.596 41.976C182.172 42.92 182.46 44.048 182.46 45.36V47.4C182.46 48.712 182.172 49.848 181.596 50.808C181.02 51.752 180.252 52.464 179.292 52.944C178.332 53.44 177.284 53.688 176.148 53.688ZM176.148 52.104C176.98 52.104 177.74 51.912 178.428 51.528C179.132 51.16 179.692 50.616 180.108 49.896C180.524 49.16 180.732 48.304 180.732 47.328V45.456C180.732 44.48 180.524 43.632 180.108 42.912C179.692 42.192 179.132 41.648 178.428 41.28C177.74 40.896 176.98 40.704 176.148 40.704C175.316 40.704 174.556 40.896 173.868 41.28C173.18 41.648 172.628 42.192 172.212 42.912C171.812 43.616 171.612 44.464 171.612 45.456V47.328C171.612 48.304 171.812 49.16 172.212 49.896C172.628 50.616 173.18 51.16 173.868 51.528C174.556 51.912 175.316 52.104 176.148 52.104Z" fill="black"/>
<path d="M189.436 40.08H202.852V41.664H187.732V33H189.436V40.08ZM205.564 46.08H184.828V44.496H205.564V46.08ZM203.26 54.6H187.732V48.168H189.436V53.016H203.26V54.6Z" fill="black"/>
<path d="M230.414 32.448H232.142V54.6H230.414V46.392H225.566C225.278 48.168 224.638 49.488 223.646 50.352C222.654 51.216 221.454 51.648 220.046 51.648C218.366 51.648 216.998 51.048 215.942 49.848C214.902 48.648 214.382 46.8 214.382 44.304V40.992C214.382 38.496 214.902 36.648 215.942 35.448C216.998 34.248 218.366 33.648 220.046 33.648C221.31 33.648 222.406 34 223.334 34.704C224.278 35.392 224.942 36.448 225.326 37.872H230.414V32.448ZM223.982 40.992C223.982 39.024 223.622 37.576 222.902 36.648C222.198 35.704 221.246 35.232 220.046 35.232C218.846 35.232 217.886 35.704 217.166 36.648C216.462 37.576 216.11 39.024 216.11 40.992V44.28C216.11 46.248 216.462 47.704 217.166 48.648C217.886 49.592 218.846 50.064 220.046 50.064C221.246 50.064 222.198 49.592 222.902 48.648C223.622 47.704 223.982 46.248 223.982 44.28V40.992ZM230.414 44.808V39.432H225.638C225.686 39.912 225.71 40.432 225.71 40.992V44.808H230.414Z" fill="black"/>
<path d="M242.372 34.704H246.764V36.144H236.276V34.704H240.644V32.16H242.372V34.704ZM253.532 39.672H250.172V45.048H248.54V32.688H250.172V38.112H253.532V32.448H255.188V45.288H253.532V39.672ZM245.9 41.424C245.9 42.576 245.5 43.472 244.7 44.112C243.916 44.736 242.868 45.048 241.556 45.048C240.228 45.048 239.164 44.736 238.364 44.112C237.564 43.472 237.164 42.576 237.164 41.424V41.088C237.164 39.952 237.564 39.072 238.364 38.448C239.164 37.808 240.228 37.488 241.556 37.488C242.868 37.488 243.916 37.808 244.7 38.448C245.5 39.072 245.9 39.952 245.9 41.088V41.424ZM238.772 41.376C238.772 42.048 239.02 42.584 239.516 42.984C240.028 43.384 240.708 43.584 241.556 43.584C242.372 43.584 243.028 43.384 243.524 42.984C244.036 42.584 244.292 42.048 244.292 41.376V41.16C244.292 40.504 244.036 39.976 243.524 39.576C243.028 39.16 242.372 38.952 241.556 38.952C240.724 38.952 240.052 39.16 239.54 39.576C239.028 39.976 238.772 40.504 238.772 41.16V41.376ZM250.292 46.608C251.364 46.608 252.292 46.784 253.076 47.136C253.86 47.488 254.46 47.976 254.876 48.6C255.292 49.224 255.5 49.928 255.5 50.712C255.5 51.928 255.036 52.912 254.108 53.664C253.18 54.432 251.908 54.816 250.292 54.816H245.468C243.836 54.816 242.556 54.44 241.628 53.688C240.7 52.936 240.236 51.944 240.236 50.712C240.236 49.928 240.444 49.224 240.86 48.6C241.276 47.976 241.876 47.488 242.66 47.136C243.46 46.784 244.396 46.608 245.468 46.608H250.292ZM249.932 53.28C251.196 53.28 252.148 53.048 252.788 52.584C253.444 52.12 253.772 51.496 253.772 50.712C253.772 49.944 253.444 49.328 252.788 48.864C252.148 48.4 251.196 48.168 249.932 48.168H245.804C244.556 48.168 243.604 48.4 242.948 48.864C242.292 49.328 241.964 49.944 241.964 50.712C241.964 51.496 242.284 52.12 242.924 52.584C243.58 53.048 244.54 53.28 245.804 53.28H249.932Z" fill="black"/>
<path d="M277.658 54.6H275.93V32.448H277.658V54.6ZM265.586 51.648C263.906 51.648 262.538 51.048 261.482 49.848C260.426 48.632 259.898 46.784 259.898 44.304V40.992C259.898 38.512 260.426 36.672 261.482 35.472C262.538 34.256 263.906 33.648 265.586 33.648C267.266 33.648 268.634 34.256 269.69 35.472C270.746 36.672 271.274 38.512 271.274 40.992V44.304C271.274 46.784 270.746 48.632 269.69 49.848C268.634 51.048 267.266 51.648 265.586 51.648ZM265.586 50.064C266.802 50.064 267.77 49.592 268.49 48.648C269.21 47.704 269.57 46.248 269.57 44.28V40.992C269.57 39.024 269.21 37.576 268.49 36.648C267.77 35.704 266.802 35.232 265.586 35.232C264.37 35.232 263.402 35.704 262.682 36.648C261.978 37.576 261.626 39.024 261.626 40.992V44.28C261.626 46.248 261.978 47.704 262.682 48.648C263.402 49.592 264.37 50.064 265.586 50.064Z" fill="black"/>
<path d="M289.403 40.848C291.979 40.032 293.915 39.104 295.211 38.064C296.523 37.024 297.179 35.896 297.179 34.68V34.512H290.555V33H305.267V34.512H298.883V34.656C298.883 35.504 298.691 36.312 298.307 37.08L306.371 40.896L305.675 42.312L297.371 38.352C295.931 39.904 293.451 41.224 289.931 42.312L289.403 40.848ZM287.531 45.936V44.352H308.267V45.936H298.763V50.328H297.059V45.936H287.531ZM290.315 48.168H292.043V53.016H305.963V54.6H290.315V48.168Z" fill="black"/>
<path d="M327.305 54.6V32.448H329.009V54.6H327.305ZM313.169 40.56H320.369V33.984H322.073V50.952H311.489V33.984H313.169V40.56ZM313.169 42.12V49.368H320.369V42.12H313.169Z" fill="black"/>
<path d="M349.391 33.528H351.119V43.392H335.735V33.528H337.439V36.96H349.391V33.528ZM337.439 38.52V41.856H349.391V38.52H337.439ZM333.047 46.704H353.783V48.288H344.279V54.84H342.575V48.288H333.047V46.704Z" fill="black"/>
<path d="M372.821 41.352V32.448H374.525V54.6H372.821V42.912H368.741V41.352H372.821ZM361.133 49.824C362.493 49.824 363.973 49.76 365.573 49.632C367.189 49.488 368.677 49.304 370.037 49.08L370.253 50.592C368.973 50.832 367.485 51.024 365.789 51.168C364.109 51.312 362.461 51.384 360.845 51.384H357.125V34.224H367.733V35.784H358.829V41.904H367.469V43.464H358.829V49.824H361.133Z" fill="black"/>
<path d="M401.895 41.112H405.567V42.696H401.895V54.6H400.167V32.448H401.895V41.112ZM395.295 50.952H384.927V34.224H395.295V50.952ZM393.591 35.808H386.631V49.368H393.591V35.808Z" fill="black"/>
<path d="M409.844 33.624H425.228V42.936H409.844V33.624ZM411.548 41.4H423.5V35.184H411.548V41.4ZM407.156 46.488H427.892V48.048H418.388V54.864H416.684V48.048H407.156V46.488Z" fill="black"/>
<path d="M448.634 54.6H446.93V32.448H448.634V54.6ZM431.234 51.384V41.904H439.826V35.784H431.234V34.224H441.554V43.464H432.938V49.824H435.266C436.594 49.824 438.066 49.76 439.682 49.632C441.314 49.488 442.842 49.304 444.266 49.08L444.482 50.568C443.17 50.824 441.666 51.024 439.97 51.168C438.274 51.312 436.61 51.384 434.978 51.384H431.234Z" fill="black"/>
<path d="M470.288 41.112H473.96V42.696H470.288V54.6H468.608V32.448H470.288V41.112ZM453.44 35.904V34.344H458.696V36.048C458.696 40.976 457.256 46.12 454.376 51.48L452.936 50.64C454.264 48.192 455.272 45.728 455.96 43.248C456.664 40.768 457.016 38.48 457.016 36.384V35.904H453.44ZM459.944 35.904V34.344H465.128V36.048C465.128 38.704 464.76 41.448 464.024 44.28C463.288 47.112 462.216 49.816 460.808 52.392L459.392 51.552C460.704 49.168 461.704 46.616 462.392 43.896C463.096 41.16 463.448 38.656 463.448 36.384V35.904H459.944Z" fill="black"/>
<path d="M492.422 54.6V32.448H494.126V54.6H492.422ZM483.494 37.152C483.494 38.912 483.262 40.6 482.798 42.216L489.59 50.136L488.342 51.288L482.15 44.04C481.622 45.32 480.934 46.568 480.086 47.784C479.238 49 478.206 50.248 476.99 51.528L475.742 50.352C477.774 48.24 479.286 46.16 480.278 44.112C481.286 42.064 481.79 39.744 481.79 37.152V35.904H476.63V34.344H488.702V35.904H483.494V37.152Z" fill="black"/>
<path d="M59.904 75.072C62.416 74.528 64.328 73.848 65.64 73.032C66.968 72.216 67.648 71.32 67.68 70.344H61.032V68.88H75.744V70.344H69.384C69.352 71.064 69.168 71.712 68.832 72.288L76.848 75.096L76.272 76.512L67.752 73.536C66.28 74.768 63.808 75.76 60.336 76.512L59.904 75.072ZM58.008 79.152V77.688H78.744V79.152H58.008ZM76.08 86.688H62.4V89.256H76.68V90.72H60.696V85.248H74.352V82.776H60.576V81.312H76.08V86.688Z" fill="black"/>
<path d="M97.7818 68.448H99.4858V79.992H97.7818V75.672H90.8698C89.1578 77.544 86.4058 79.056 82.6138 80.208L82.0138 78.72C84.7658 77.904 86.9498 76.84 88.5658 75.528C90.1818 74.216 91.0218 72.816 91.0858 71.328H82.3738V69.768H92.8138V70.8C92.8138 71.984 92.5338 73.088 91.9738 74.112H97.7818V68.448ZM86.9578 84.288H97.7818V81.336H99.4858V90.6H85.2538V81.336H86.9578V84.288ZM86.9578 85.824V89.04H97.7818V85.824H86.9578Z" fill="black"/>
<path d="M120.852 90.6V68.448H122.532V90.6H120.852ZM116.076 77.592V68.808H117.732V90.192H116.076V79.152H111.396C110.132 82.336 108.1 85.216 105.3 87.792L104.076 86.544C106.236 84.608 107.932 82.4 109.164 79.92C110.412 77.44 111.036 74.928 111.036 72.384V71.904H104.484V70.344H112.74V72.048C112.74 73.936 112.468 75.784 111.924 77.592H116.076Z" fill="black"/>
<path d="M150.837 90.6H149.109V68.448H150.837V90.6ZM138.765 87.648C137.085 87.648 135.717 87.048 134.661 85.848C133.605 84.632 133.077 82.784 133.077 80.304V76.992C133.077 74.512 133.605 72.672 134.661 71.472C135.717 70.256 137.085 69.648 138.765 69.648C140.445 69.648 141.813 70.256 142.869 71.472C143.925 72.672 144.453 74.512 144.453 76.992V80.304C144.453 82.784 143.925 84.632 142.869 85.848C141.813 87.048 140.445 87.648 138.765 87.648ZM138.765 86.064C139.981 86.064 140.949 85.592 141.669 84.648C142.389 83.704 142.749 82.248 142.749 80.28V76.992C142.749 75.024 142.389 73.576 141.669 72.648C140.949 71.704 139.981 71.232 138.765 71.232C137.549 71.232 136.581 71.704 135.861 72.648C135.157 73.576 134.805 75.024 134.805 76.992V80.28C134.805 82.248 135.157 83.704 135.861 84.648C136.581 85.592 137.549 86.064 138.765 86.064Z" fill="black"/>
<path d="M171.867 68.448H173.595V90.6H171.867V78.912H167.211V80.304C167.211 82.784 166.683 84.632 165.627 85.848C164.571 87.048 163.203 87.648 161.523 87.648C159.843 87.648 158.475 87.048 157.419 85.848C156.363 84.632 155.835 82.784 155.835 80.304V76.992C155.835 74.512 156.363 72.672 157.419 71.472C158.475 70.256 159.843 69.648 161.523 69.648C163.203 69.648 164.571 70.256 165.627 71.472C166.683 72.672 167.211 74.512 167.211 76.992V77.352H171.867V68.448ZM165.507 76.992C165.507 75.024 165.147 73.576 164.427 72.648C163.707 71.704 162.739 71.232 161.523 71.232C160.307 71.232 159.339 71.704 158.619 72.648C157.915 73.576 157.563 75.024 157.563 76.992V80.28C157.563 82.248 157.915 83.704 158.619 84.648C159.339 85.592 160.307 86.064 161.523 86.064C162.739 86.064 163.707 85.592 164.427 84.648C165.147 83.704 165.507 82.248 165.507 80.28V76.992Z" fill="black"/>
<path d="M194.625 90.6V68.448H196.329V90.6H194.625ZM185.697 73.152C185.697 74.912 185.465 76.6 185.001 78.216L191.793 86.136L190.545 87.288L184.353 80.04C183.825 81.32 183.137 82.568 182.289 83.784C181.441 85 180.409 86.248 179.193 87.528L177.945 86.352C179.977 84.24 181.489 82.16 182.481 80.112C183.489 78.064 183.993 75.744 183.993 73.152V71.904H178.833V70.344H190.905V71.904H185.697V73.152Z" fill="black"/>
<path d="M217.407 68.448H219.135V79.296H217.407V68.448ZM212.463 70.656C212.463 72.736 211.575 74.52 209.799 76.008C208.039 77.496 205.519 78.696 202.239 79.608L201.663 78.12C204.415 77.352 206.599 76.36 208.215 75.144C209.847 73.928 210.695 72.616 210.759 71.208H202.023V69.648H212.463V70.656ZM206.607 86.472V89.208H220.047V90.72H204.903V84.984H217.407V82.344H204.783V80.88H219.135V86.472H206.607Z" fill="black"/>
<path d="M246.481 77.112H250.153V78.696H246.481V90.6H244.753V68.448H246.481V77.112ZM231.217 76.56H238.177V69.984H239.881V86.952H229.513V69.984H231.217V76.56ZM231.217 78.12V85.368H238.177V78.12H231.217Z" fill="black"/>
<path d="M269.238 77.112H272.91V78.696H269.238V90.6H267.51V68.448H269.238V77.112ZM256.302 85.824C257.63 85.824 259.062 85.76 260.598 85.632C262.15 85.504 263.606 85.328 264.966 85.104L265.182 86.616C263.87 86.856 262.406 87.04 260.79 87.168C259.174 87.312 257.582 87.384 256.014 87.384H252.39V77.904H260.646V71.784H252.39V70.224H262.35V79.464H254.094V85.824H256.302Z" fill="black"/>
<path d="M279.108 76.08H292.524V77.664H277.404V69H279.108V76.08ZM295.236 82.08H274.5V80.496H295.236V82.08ZM292.932 90.6H277.404V84.168H279.108V89.016H292.932V90.6Z" fill="black"/>
<path d="M320.59 77.112H324.262V78.696H320.59V90.6H318.862V68.448H320.59V77.112ZM313.99 86.952H303.622V70.224H313.99V86.952ZM312.286 71.808H305.326V85.368H312.286V71.808Z" fill="black"/>
<path d="M334.66 76.608C332.708 76.608 331.18 76.28 330.076 75.624C328.972 74.952 328.42 73.968 328.42 72.672C328.42 71.392 328.972 70.424 330.076 69.768C331.18 69.096 332.708 68.76 334.66 68.76H337.78C339.748 68.76 341.284 69.096 342.388 69.768C343.492 70.424 344.044 71.392 344.044 72.672C344.044 73.968 343.492 74.952 342.388 75.624C341.284 76.28 339.748 76.608 337.78 76.608H334.66ZM337.492 75.144C339.044 75.144 340.236 74.928 341.068 74.496C341.9 74.064 342.316 73.464 342.316 72.696C342.316 71.896 341.9 71.288 341.068 70.872C340.252 70.456 339.06 70.248 337.492 70.248H334.972C333.388 70.248 332.18 70.456 331.348 70.872C330.532 71.288 330.124 71.896 330.124 72.696C330.124 73.496 330.54 74.104 331.372 74.52C332.204 74.936 333.404 75.144 334.972 75.144H337.492ZM346.588 80.448H325.852V78.936H346.588V80.448ZM343.948 90.6H328.54V83.064H343.948V90.6ZM330.244 84.552V89.112H342.22V84.552H330.244Z" fill="black"/>
<path d="M365.938 90.6V68.448H367.618V90.6H365.938ZM361.162 77.352V68.808H362.818V90.192H361.162V78.912H358.162V80.304C358.162 82.8 357.746 84.648 356.914 85.848C356.082 87.048 354.986 87.648 353.626 87.648C352.234 87.648 351.122 87.048 350.29 85.848C349.458 84.648 349.042 82.8 349.042 80.304V76.992C349.042 74.496 349.458 72.648 350.29 71.448C351.122 70.248 352.234 69.648 353.626 69.648C354.986 69.648 356.082 70.248 356.914 71.448C357.746 72.648 358.162 74.496 358.162 76.992V77.352H361.162ZM356.506 76.992C356.506 75.024 356.242 73.576 355.714 72.648C355.202 71.704 354.498 71.232 353.602 71.232C352.706 71.232 351.994 71.704 351.466 72.648C350.954 73.576 350.698 75.024 350.698 76.992V80.28C350.698 82.248 350.954 83.704 351.466 84.648C351.994 85.592 352.706 86.064 353.602 86.064C354.498 86.064 355.202 85.592 355.714 84.648C356.242 83.704 356.506 82.248 356.506 80.28V76.992Z" fill="black"/>
<path d="M388.335 76.416V68.448H390.063V90.6H388.335V78H382.647V76.416H388.335ZM379.191 72.576C379.191 74.496 378.951 76.32 378.471 78.048L385.359 86.16L384.087 87.288L377.847 79.92C376.791 82.56 375.031 85.096 372.567 87.528L371.367 86.352C373.447 84.304 374.991 82.184 375.999 79.992C377.007 77.784 377.511 75.312 377.511 72.576V69.816H379.191V72.576Z" fill="black"/>
<path d="M416.929 90.6V68.448H418.657V90.6H416.929ZM407.785 72.576C407.785 74.496 407.545 76.32 407.065 78.048L413.953 86.16L412.681 87.288L406.441 79.92C405.385 82.56 403.625 85.096 401.161 87.528L399.961 86.352C402.041 84.304 403.585 82.184 404.593 79.992C405.601 77.784 406.105 75.312 406.105 72.576V69.816H407.785V72.576Z" fill="black"/>
<path d="M440.191 73.632H443.863V75.216H440.191V80.928H438.487V68.472H440.191V73.632ZM428.671 76.008C427.615 77.768 425.799 79.408 423.223 80.928L422.383 79.56C424.335 78.344 425.791 77.112 426.751 75.864C427.711 74.6 428.191 73.168 428.191 71.568V71.208H423.223V69.648H434.887V71.208H429.871V71.568C429.871 72.608 429.703 73.6 429.367 74.544L435.775 79.08L434.839 80.472L428.671 76.008ZM438.487 84.048H426.175V82.488H440.191V90.816H438.487V84.048Z" fill="black"/>
<path d="M462.469 90.6V68.448H464.173V90.6H462.469ZM453.613 85.248C456.173 85.104 458.421 84.912 460.357 84.672L460.549 86.184C458.901 86.424 457.077 86.616 455.077 86.76C453.093 86.888 451.269 86.952 449.605 86.952H445.765L445.669 85.368H449.701C450.101 85.368 450.829 85.352 451.885 85.32V81.144H447.277V70.224H458.077V71.784H449.005V79.608H458.293V81.144H453.613V85.248Z" fill="black"/>
<path d="M475.003 79.56C473.307 79.56 471.915 79.128 470.827 78.264C469.755 77.4 469.219 76.16 469.219 74.544V74.088C469.219 72.472 469.755 71.232 470.827 70.368C471.915 69.504 473.307 69.072 475.003 69.072C476.587 69.072 477.907 69.472 478.963 70.272C480.035 71.056 480.619 72.184 480.715 73.656H485.275V68.472H486.979V80.568H485.275V75.216H480.691C480.547 76.608 479.947 77.68 478.891 78.432C477.835 79.184 476.539 79.56 475.003 79.56ZM470.947 74.496C470.947 75.616 471.315 76.488 472.051 77.112C472.803 77.72 473.787 78.024 475.003 78.024C476.187 78.024 477.147 77.72 477.883 77.112C478.635 76.488 479.011 75.616 479.011 74.496V74.136C479.011 73.016 478.635 72.152 477.883 71.544C477.147 70.92 476.187 70.608 475.003 70.608C473.787 70.608 472.803 70.92 472.051 71.544C471.315 72.152 470.947 73.016 470.947 74.136V74.496ZM488.923 89.568L487.891 90.816L483.499 87.048C482.651 88.424 481.339 89.68 479.563 90.816L475.195 87.048C474.347 88.424 473.035 89.68 471.259 90.816L470.323 89.52C473.219 87.6 474.667 85.488 474.667 83.184V82.032H476.347V83.184C476.347 83.984 476.203 84.784 475.915 85.584L479.659 88.776C481.851 87.08 482.947 85.216 482.947 83.184V82.032H484.627V83.184C484.627 84.016 484.483 84.816 484.195 85.584L488.923 89.568Z" fill="black"/>
<path d="M500.736 73.392C499.28 74.816 496.824 75.992 493.368 76.92L492.864 75.408C495.408 74.72 497.336 73.896 498.648 72.936C499.976 71.976 500.64 70.928 500.64 69.792V68.76H502.32V69.792C502.32 70.592 502.128 71.344 501.744 72.048L509.856 75.456L509.184 76.92L500.736 73.392ZM490.992 80.088V78.6H511.728V80.088H490.992ZM495.384 84.84H507.336V82.248H509.064V90.6H493.68V82.248H495.384V84.84ZM495.384 86.304V89.136H507.336V86.304H495.384Z" fill="black"/>
<path d="M532.47 90.6H530.766V68.448H532.47V90.6ZM515.31 86.904V70.224H517.014V85.344H519.006C520.334 85.344 521.822 85.272 523.47 85.128C525.118 84.984 526.67 84.8 528.126 84.576L528.318 86.088C526.958 86.328 525.414 86.528 523.686 86.688C521.958 86.832 520.294 86.904 518.694 86.904H515.31Z" fill="black"/>
<path d="M554.004 77.112H557.676V78.696H554.004V90.6H552.276V68.448H554.004V77.112ZM540.9 85.344C542.164 85.344 543.588 85.28 545.172 85.152C546.756 85.008 548.284 84.832 549.756 84.624L549.948 86.136C548.604 86.376 547.1 86.568 545.436 86.712C543.788 86.84 542.18 86.904 540.612 86.904H537.156V70.224H547.572V71.808H538.884V85.344H540.9Z" fill="black"/>
<path d="M561.09 89.688C560.722 89.688 560.41 89.552 560.154 89.28C559.898 89.024 559.77 88.712 559.77 88.344C559.77 87.976 559.898 87.664 560.154 87.408C560.41 87.152 560.722 87.024 561.09 87.024C561.458 87.024 561.77 87.152 562.026 87.408C562.298 87.664 562.434 87.976 562.434 88.344C562.434 88.712 562.298 89.024 562.026 89.28C561.77 89.552 561.458 89.688 561.09 89.688Z" fill="black"/>
<path d="M65.424 106.68H70.992V108.144H58.128V106.68H63.696V104.16H65.424V106.68ZM75.48 110.088H79.176V111.672H75.48V117.168H73.776V104.448H75.48V110.088ZM69.936 113.4C69.936 114.536 69.432 115.424 68.424 116.064C67.432 116.688 66.152 117 64.584 117C63.016 117 61.728 116.688 60.72 116.064C59.712 115.424 59.208 114.536 59.208 113.4V113.064C59.208 111.944 59.712 111.064 60.72 110.424C61.744 109.784 63.032 109.464 64.584 109.464C66.136 109.464 67.416 109.784 68.424 110.424C69.432 111.048 69.936 111.928 69.936 113.064V113.4ZM60.912 113.376C60.912 114.032 61.256 114.56 61.944 114.96C62.648 115.36 63.528 115.56 64.584 115.56C65.64 115.56 66.512 115.36 67.2 114.96C67.904 114.56 68.256 114.032 68.256 113.376V113.136C68.256 112.48 67.904 111.952 67.2 111.552C66.512 111.136 65.64 110.928 64.584 110.928C63.528 110.928 62.648 111.136 61.944 111.552C61.256 111.952 60.912 112.48 60.912 113.136V113.376ZM75.48 126.576H61.704V118.728H75.48V126.576ZM73.776 120.24H63.432V125.064H73.776V120.24Z" fill="black"/>
<path d="M98.3818 126.6V104.448H100.014V126.6H98.3818ZM93.9658 113.592V104.808H95.5738V126.192H93.9658V115.152H90.7978C90.2218 118.416 89.3098 121.488 88.0618 124.368L86.5738 123.72C87.6138 121.288 88.4218 118.696 88.9978 115.944C89.5738 113.176 89.8618 110.656 89.8618 108.384V107.904H86.9818V106.344H91.4698V108.048C91.4698 109.76 91.3338 111.608 91.0618 113.592H93.9658ZM81.6058 107.904V106.344H85.9978V108.048C85.9978 112.912 84.8778 118.048 82.6378 123.456L81.1498 122.832C82.1898 120.32 82.9898 117.808 83.5498 115.296C84.1258 112.784 84.4138 110.48 84.4138 108.384V107.904H81.6058Z" fill="black"/>
<path d="M120.996 113.112H124.692V114.696H120.996V126.6H119.292V104.448H120.996V113.112ZM109.212 104.472H110.916V107.976H116.484V109.536H103.644V107.976H109.212V104.472ZM110.1 111.816C111.092 111.816 111.988 112.032 112.788 112.464C113.604 112.88 114.244 113.48 114.708 114.264C115.188 115.048 115.428 115.96 115.428 117V118.272C115.428 119.312 115.188 120.232 114.708 121.032C114.244 121.816 113.604 122.424 112.788 122.856C111.988 123.272 111.092 123.48 110.1 123.48C109.092 123.48 108.18 123.272 107.364 122.856C106.548 122.424 105.9 121.816 105.42 121.032C104.956 120.232 104.724 119.312 104.724 118.272V117C104.724 115.96 104.956 115.048 105.42 114.264C105.9 113.48 106.548 112.88 107.364 112.464C108.18 112.032 109.092 111.816 110.1 111.816ZM113.724 117.072C113.724 115.952 113.38 115.064 112.692 114.408C112.004 113.736 111.14 113.4 110.1 113.4C109.044 113.4 108.172 113.736 107.484 114.408C106.796 115.064 106.452 115.952 106.452 117.072V118.2C106.452 119.336 106.796 120.24 107.484 120.912C108.172 121.584 109.044 121.92 110.1 121.92C111.14 121.92 112.004 121.584 112.692 120.912C113.38 120.224 113.724 119.32 113.724 118.2V117.072Z" fill="black"/>
<path d="M130.889 112.08H144.305V113.664H129.185V105H130.889V112.08ZM147.017 118.08H126.281V116.496H147.017V118.08ZM144.713 126.6H129.185V120.168H130.889V125.016H144.713V126.6Z" fill="black"/>
<path d="M172.179 113.112V104.448H173.859V126.6H172.179V114.696H168.747V126.192H167.067V104.808H168.747V113.112H172.179ZM160.971 108.648C160.971 110.488 160.787 112.28 160.419 114.024L165.651 122.256L164.259 123.264L159.795 116.232C158.979 118.744 157.659 121.176 155.835 123.528L154.539 122.424C156.139 120.376 157.331 118.24 158.115 116.016C158.899 113.792 159.291 111.336 159.291 108.648V105.816H160.971V108.648Z" fill="black"/>
<path d="M188.865 118.488V123.24H198.369V124.824H177.633V123.24H187.161V118.488H180.321V111.48H193.977V107.64H180.201V106.08H195.705V113.016H182.025V116.952H196.185V118.488H188.865Z" fill="black"/>
<path d="M209.223 113.736C207.287 113.736 205.759 113.344 204.639 112.56C203.519 111.76 202.959 110.656 202.959 109.248C202.959 107.84 203.519 106.744 204.639 105.96C205.759 105.16 207.287 104.76 209.223 104.76H212.295C214.247 104.76 215.783 105.152 216.903 105.936C218.023 106.72 218.583 107.824 218.583 109.248C218.583 110.672 218.023 111.776 216.903 112.56C215.783 113.344 214.247 113.736 212.295 113.736H209.223ZM209.511 106.272C207.975 106.272 206.783 106.536 205.935 107.064C205.087 107.592 204.663 108.32 204.663 109.248C204.663 110.176 205.087 110.904 205.935 111.432C206.783 111.96 207.975 112.224 209.511 112.224H212.031C213.551 112.224 214.735 111.96 215.583 111.432C216.431 110.888 216.855 110.16 216.855 109.248C216.855 108.32 216.431 107.592 215.583 107.064C214.751 106.536 213.567 106.272 212.031 106.272H209.511ZM200.391 117.936V116.352H221.127V117.936H211.623V122.328H209.919V117.936H200.391ZM203.175 120.168H204.903V125.016H218.823V126.6H203.175V120.168Z" fill="black"/>
<path d="M245.977 104.448H247.705V126.6H245.977V118.392H241.129C240.841 120.168 240.201 121.488 239.209 122.352C238.217 123.216 237.017 123.648 235.609 123.648C233.929 123.648 232.561 123.048 231.505 121.848C230.465 120.648 229.945 118.8 229.945 116.304V112.992C229.945 110.496 230.465 108.648 231.505 107.448C232.561 106.248 233.929 105.648 235.609 105.648C236.873 105.648 237.969 106 238.897 106.704C239.841 107.392 240.505 108.448 240.889 109.872H245.977V104.448ZM239.545 112.992C239.545 111.024 239.185 109.576 238.465 108.648C237.761 107.704 236.809 107.232 235.609 107.232C234.409 107.232 233.449 107.704 232.729 108.648C232.025 109.576 231.673 111.024 231.673 112.992V116.28C231.673 118.248 232.025 119.704 232.729 120.648C233.449 121.592 234.409 122.064 235.609 122.064C236.809 122.064 237.761 121.592 238.465 120.648C239.185 119.704 239.545 118.248 239.545 116.28V112.992ZM245.977 116.808V111.432H241.201C241.249 111.912 241.273 112.432 241.273 112.992V116.808H245.977Z" fill="black"/>
<path d="M257.934 106.704H262.326V108.144H251.838V106.704H256.206V104.16H257.934V106.704ZM269.094 111.672H265.734V117.048H264.102V104.688H265.734V110.112H269.094V104.448H270.75V117.288H269.094V111.672ZM261.462 113.424C261.462 114.576 261.062 115.472 260.262 116.112C259.478 116.736 258.43 117.048 257.118 117.048C255.79 117.048 254.726 116.736 253.926 116.112C253.126 115.472 252.726 114.576 252.726 113.424V113.088C252.726 111.952 253.126 111.072 253.926 110.448C254.726 109.808 255.79 109.488 257.118 109.488C258.43 109.488 259.478 109.808 260.262 110.448C261.062 111.072 261.462 111.952 261.462 113.088V113.424ZM254.334 113.376C254.334 114.048 254.582 114.584 255.078 114.984C255.59 115.384 256.27 115.584 257.118 115.584C257.934 115.584 258.59 115.384 259.086 114.984C259.598 114.584 259.854 114.048 259.854 113.376V113.16C259.854 112.504 259.598 111.976 259.086 111.576C258.59 111.16 257.934 110.952 257.118 110.952C256.286 110.952 255.614 111.16 255.102 111.576C254.59 111.976 254.334 112.504 254.334 113.16V113.376ZM265.854 118.608C266.926 118.608 267.854 118.784 268.638 119.136C269.422 119.488 270.022 119.976 270.438 120.6C270.854 121.224 271.062 121.928 271.062 122.712C271.062 123.928 270.598 124.912 269.67 125.664C268.742 126.432 267.47 126.816 265.854 126.816H261.03C259.398 126.816 258.118 126.44 257.19 125.688C256.262 124.936 255.798 123.944 255.798 122.712C255.798 121.928 256.006 121.224 256.422 120.6C256.838 119.976 257.438 119.488 258.222 119.136C259.022 118.784 259.958 118.608 261.03 118.608H265.854ZM265.494 125.28C266.758 125.28 267.71 125.048 268.35 124.584C269.006 124.12 269.334 123.496 269.334 122.712C269.334 121.944 269.006 121.328 268.35 120.864C267.71 120.4 266.758 120.168 265.494 120.168H261.366C260.118 120.168 259.166 120.4 258.51 120.864C257.854 121.328 257.526 121.944 257.526 122.712C257.526 123.496 257.846 124.12 258.486 124.584C259.142 125.048 260.102 125.28 261.366 125.28H265.494Z" fill="black"/>
<path d="M283.308 111.792C281.324 111.792 279.788 111.496 278.7 110.904C277.612 110.312 277.068 109.408 277.068 108.192C277.068 106.976 277.612 106.08 278.7 105.504C279.788 104.928 281.324 104.64 283.308 104.64H286.428C288.428 104.64 289.972 104.928 291.06 105.504C292.148 106.08 292.692 106.976 292.692 108.192C292.692 109.408 292.14 110.312 291.036 110.904C289.948 111.496 288.412 111.792 286.428 111.792H283.308ZM286.164 110.328C287.732 110.328 288.924 110.152 289.74 109.8C290.556 109.432 290.964 108.896 290.964 108.192C290.964 106.8 289.364 106.104 286.164 106.104H283.596C280.38 106.104 278.772 106.8 278.772 108.192C278.772 109.616 280.38 110.328 283.596 110.328H286.164ZM295.236 115.152H274.5V113.688H295.236V115.152ZM293.172 126.72H277.188V121.248H290.844V118.752H277.068V117.312H292.572V122.688H278.892V125.256H293.172V126.72Z" fill="black"/>
<path d="M320.086 126.6V104.448H321.79V126.6H320.086ZM311.158 109.152C311.158 110.912 310.926 112.6 310.462 114.216L317.254 122.136L316.006 123.288L309.814 116.04C309.286 117.32 308.598 118.568 307.75 119.784C306.902 121 305.87 122.248 304.654 123.528L303.406 122.352C305.438 120.24 306.95 118.16 307.942 116.112C308.95 114.064 309.454 111.744 309.454 109.152V107.904H304.294V106.344H316.366V107.904H311.158V109.152Z" fill="black"/>
<path d="M346.588 113.52V115.08H325.852V113.52H340.948C341.172 112.304 341.348 111.088 341.476 109.872C341.62 108.64 341.692 107.656 341.692 106.92V106.8H328.468V105.24H343.396V106.56C343.396 108.576 343.156 110.896 342.676 113.52H346.588ZM343.924 126.6H328.54V118.128H343.924V126.6ZM342.196 119.664H330.244V125.064H342.196V119.664Z" fill="black"/>
<path d="M365.941 109.536C364.773 112.528 361.582 114.872 356.366 116.568L355.694 115.08C358.446 114.184 360.621 113.056 362.221 111.696C363.837 110.336 364.669 108.888 364.717 107.352H356.053V105.768H366.445V106.848C366.445 107.296 366.413 107.704 366.349 108.072H371.461V104.472H373.165V116.568H371.461V113.712H365.87V112.248H371.461V109.536H365.941ZM368.318 117.912C369.374 117.912 370.294 118.112 371.078 118.512C371.862 118.896 372.462 119.432 372.878 120.12C373.294 120.792 373.501 121.544 373.501 122.376C373.501 123.224 373.294 123.984 372.878 124.656C372.462 125.328 371.862 125.856 371.078 126.24C370.294 126.624 369.374 126.816 368.318 126.816H363.638C362.582 126.816 361.662 126.624 360.878 126.24C360.11 125.856 359.518 125.328 359.102 124.656C358.686 123.984 358.478 123.224 358.478 122.376C358.478 121.544 358.686 120.792 359.102 120.12C359.518 119.432 360.11 118.896 360.878 118.512C361.662 118.112 362.582 117.912 363.638 117.912H368.318ZM367.982 125.28C369.214 125.28 370.149 125.008 370.789 124.464C371.445 123.936 371.773 123.232 371.773 122.352C371.773 121.504 371.445 120.808 370.789 120.264C370.149 119.72 369.214 119.448 367.982 119.448H363.997C362.765 119.448 361.821 119.72 361.165 120.264C360.509 120.808 360.181 121.504 360.181 122.352C360.181 123.232 360.509 123.936 361.165 124.464C361.821 125.008 362.765 125.28 363.997 125.28H367.982Z" fill="black"/>
<path d="M385.075 106.68H390.667V108.144H377.803V106.68H383.371V104.16H385.075V106.68ZM394.195 110.832V104.448H395.899V117.168H394.195V112.344H390.595V110.832H394.195ZM389.611 113.4C389.611 114.536 389.107 115.424 388.099 116.064C387.107 116.688 385.827 117 384.259 117C382.691 117 381.403 116.688 380.395 116.064C379.403 115.424 378.907 114.536 378.907 113.4V113.064C378.907 111.928 379.403 111.048 380.395 110.424C381.403 109.784 382.691 109.464 384.259 109.464C385.811 109.464 387.091 109.784 388.099 110.424C389.107 111.048 389.611 111.928 389.611 113.064V113.4ZM380.587 113.376C380.587 114.032 380.931 114.56 381.619 114.96C382.307 115.36 383.187 115.56 384.259 115.56C385.299 115.56 386.171 115.36 386.875 114.96C387.579 114.56 387.931 114.032 387.931 113.376V113.136C387.931 112.48 387.579 111.952 386.875 111.552C386.171 111.136 385.299 110.928 384.259 110.928C383.203 110.928 382.323 111.136 381.619 111.552C380.931 111.952 380.587 112.48 380.587 113.136V113.376ZM395.899 126.576H381.667V118.728H395.899V126.576ZM394.195 120.24H383.371V125.064H394.195V120.24Z" fill="black"/>
<path d="M417.265 113.112V104.448H418.969V126.6H417.265V114.696H413.833V126.192H412.177V104.808H413.833V113.112H417.265ZM404.377 104.472H406.081V107.952H410.401V109.536H400.033V107.952H404.377V104.472ZM405.265 111.816C406.081 111.816 406.809 112.024 407.449 112.44C408.089 112.856 408.585 113.456 408.937 114.24C409.289 115.024 409.465 115.944 409.465 117V118.272C409.465 119.312 409.289 120.232 408.937 121.032C408.585 121.816 408.089 122.424 407.449 122.856C406.809 123.272 406.081 123.48 405.265 123.48C404.433 123.48 403.689 123.272 403.033 122.856C402.393 122.424 401.897 121.816 401.545 121.032C401.193 120.248 401.017 119.328 401.017 118.272V117C401.017 115.416 401.401 114.16 402.169 113.232C402.953 112.288 403.985 111.816 405.265 111.816ZM407.833 117.096C407.833 115.96 407.593 115.064 407.113 114.408C406.633 113.736 406.017 113.4 405.265 113.4C404.481 113.4 403.849 113.736 403.369 114.408C402.889 115.064 402.649 115.96 402.649 117.096V118.176C402.649 119.312 402.889 120.224 403.369 120.912C403.849 121.584 404.481 121.92 405.265 121.92C406.017 121.92 406.633 121.584 407.113 120.912C407.593 120.224 407.833 119.312 407.833 118.176V117.096Z" fill="black"/>
<path d="M433.951 117.912V123.24H443.455V124.824H422.719V123.24H432.247V117.912H425.407V105.96H427.111V110.424H439.063V105.96H440.791V117.912H433.951ZM439.063 112.008H427.111V116.352H439.063V112.008Z" fill="black"/>
<path d="M462.781 126.6V104.448H464.461V126.6H462.781ZM454.093 112.416H458.005V104.808H459.661V126.192H458.005V114H454.093V112.416ZM451.573 108.648C451.573 110.488 451.389 112.28 451.021 114.024L456.253 122.256L454.861 123.264L450.397 116.232C449.581 118.744 448.261 121.176 446.437 123.528L445.165 122.424C446.749 120.376 447.933 118.24 448.717 116.016C449.501 113.792 449.893 111.336 449.893 108.648V105.816H451.573V108.648Z" fill="black"/>
<path d="M477.019 117.312C475.707 117.312 474.555 117.064 473.563 116.568C472.587 116.056 471.835 115.36 471.307 114.48C470.779 113.6 470.515 112.608 470.515 111.504C470.515 110.4 470.779 109.416 471.307 108.552C471.835 107.672 472.587 106.984 473.563 106.488C474.555 105.976 475.707 105.72 477.019 105.72H480.211C481.523 105.72 482.667 105.976 483.643 106.488C484.635 106.984 485.395 107.672 485.923 108.552C486.467 109.416 486.739 110.4 486.739 111.504C486.739 112.608 486.467 113.6 485.923 114.48C485.395 115.36 484.635 116.056 483.643 116.568C482.667 117.064 481.523 117.312 480.211 117.312H477.019ZM477.307 107.28C476.251 107.28 475.339 107.464 474.571 107.832C473.803 108.2 473.219 108.704 472.819 109.344C472.419 109.984 472.219 110.704 472.219 111.504C472.219 112.32 472.419 113.056 472.819 113.712C473.219 114.352 473.803 114.856 474.571 115.224C475.339 115.592 476.251 115.776 477.307 115.776H479.923C480.979 115.776 481.891 115.592 482.659 115.224C483.427 114.856 484.011 114.352 484.411 113.712C484.811 113.056 485.011 112.32 485.011 111.504C485.011 110.704 484.811 109.984 484.411 109.344C484.011 108.704 483.427 108.2 482.659 107.832C481.891 107.464 480.979 107.28 479.923 107.28H477.307ZM483.403 118.656V123.24H488.971V124.8H468.235V123.24H473.827V118.656H475.531V123.24H481.699V118.656H483.403Z" fill="black"/>
<path d="M492.816 125.688C492.448 125.688 492.136 125.552 491.88 125.28C491.624 125.024 491.496 124.712 491.496 124.344C491.496 123.976 491.624 123.664 491.88 123.408C492.136 123.152 492.448 123.024 492.816 123.024C493.184 123.024 493.496 123.152 493.752 123.408C494.024 123.664 494.16 123.976 494.16 124.344C494.16 124.712 494.024 125.024 493.752 125.28C493.496 125.552 493.184 125.688 492.816 125.688Z" fill="black"/>
<path d="M523.071 149H532.286L538.429 136.6V118H520V136.6H529.214L523.071 149ZM547.643 149H556.857L563 136.6V118H544.571V136.6H553.786L547.643 149Z" fill="#FF8E9E" fill-opacity="0.5"/>
<path d="M39.9286 2.95364e-06L30.7143 2.1481e-06L24.5714 12.4L24.5714 31L43 31V12.4H33.7857L39.9286 2.95364e-06ZM15.3571 8.05539e-07L6.14286 0L1.62606e-06 12.4L0 31L18.4286 31L18.4286 12.4L9.21429 12.4L15.3571 8.05539e-07Z" fill="#FF8E9E" fill-opacity="0.5"/>
</svg>
